<svg xmlns="http://www.w3.org/2000/svg" viewBox="0 0 64 64">
  <style>
    .bg { fill: #c75c5c; }
    .line { fill: none; stroke: #e0e0d1; stroke-width: 4; stroke-linecap: round; stroke-linejoin: round; stroke-miterlimit: 10; }
    .line-nojoin { fill: none; stroke: #e0e0d1; stroke-width: 4; stroke-linecap: round; stroke-miterlimit: 10; }
    .shadow { fill: #231f20; opacity: 0.2; }
    .ring { fill: none; stroke: #e0e0d1; stroke-width: 4; stroke-miterlimit: 10; }
  </style>
  <circle class="bg" cx="32" cy="32" r="32" />
  <path class="line-nojoin" d="M44.2 34.3c-6.3 7.5-18.2 7.5-24.5 0" />
  <path class="line" d="M32 17V12" />
  <path
    class="shadow"
    d="M47.8 51.1 35.8 28.8c-1.4 1.2-3 1.7-5 .7-.7-.3-1.5-.8-2.2-1.3L16.2 51.1c-.5 1-.2 2.2.8 2.7 1 .5 2.2.2 2.7-.8L32 30.2l12.2 22.7c.4.7 1.1 1.1 1.8 1.1.3 0 .6-.1.9-.2.9-.6 1.4-1.8.9-2.7Z"
  />
  <path class="line" d="M35.1 29.8C39.3 37.5 46 50 46 50" />
  <path class="line" d="M18 50s6.8-12.7 11-20.4" />
  <path
    class="shadow"
    d="M32 34c-4.4 0-8-3.6-8-8s3.6-8 8-8 8 3.6 8 8-3.6 8-8 8Zm0-12a4 4 0 1 0 0 8 4 4 0 0 0 0-8Z"
  />
  <circle class="ring" cx="32" cy="24" r="6" />
</svg>
