<?xml version="1.0" encoding="utf-8"?>
<svg version="1.1" viewBox="0 0 1928 1992" width="482" height="498" xmlns="http://www.w3.org/2000/svg">
  <path transform="translate(678,15)" d="M 0 0 L 14 1 L 26 4 L 42 12 L 66 25 L 90 39 L 1113 629 L 1130 642 L 1139 651 L 1146 662 L 1151 676 L 1153 693 L 1153 1281 L 1151 1297 L 1147 1309 L 1140 1320 L 1127 1333 L 1113 1342 L 1085 1358 L 26 1968 L 15 1971 L -6 1971 L -22 1966 L -553 1659 L -561 1651 L -567 1641 L -572 1629 L -574 1617 L -574 348 L -570 336 L -564 326 L -557 317 L -546 308 L -535 300 L -25 7 L -11 2 L 0 0 Z M 493.801 985.455 L 45.001 731.47 L 45.038 1244.986 L 493.801 985.455 Z" fill="#545353"/>
  <path transform="translate(679,158)" d="M 0 0 L 8 1 L 17 5 L 1023 586 L 1024 618 L 1024 674 L 1023 723 L 1021 724 L -4 137 L -11 136 L -32 136 L -43 138 L -58 146 L -70 157 L -77 167 L -82 178 L -84 186 L -85 210 L -86 1176 L -193 1237 L -194 140 L -193 115 L -188 109 L 0 0 Z" fill="#F9D9B2"/>
  <path transform="translate(351,350)" d="M 0 0 L 4 0 L 5 2 L 6 14 L 6 1134 L 5 1170 L 9 1182 L 15 1193 L 24 1205 L 32 1212 L 44 1219 L 57 1223 L 63 1224 L 76 1224 L 88 1222 L 947 729 L 952 727 L 1058.612 786.966 L 1045 795 L 1027 806 L 155 1310 L 131 1324 L 105 1339 L 82 1351 L 75 1350 L -112 1242 L -116 1238 L -117 1234 L -118 1206 L -118 76 L -116 66 L -106 58 L -86 46 L -52 26 L -41 20 L -17 7 L -6 2 L 0 0 Z" fill="#F2AF5E"/>
  <path d="M 725 474 L 738 479 L 1700 1036 L 1701 1048 L 1701 1248 L 1700 1260 L 1691 1267 L 686 1845 L 678 1845 L 662 1837 L 565 1781 L 563 1779 L 563 1776 L 1576 1190 L 1587 1180 L 1596 1166 L 1600 1156 L 1602 1146 L 1602 1129 L 1600 1119 L 1596 1109 L 1589 1099 L 1582 1091 L 733 599 L 726 594 L 725 592 L 724 475 L 725 474 Z" fill="#EE9938"/>
</svg>